<svg width="21" height="20" viewBox="0 0 21 20" fill="none" xmlns="http://www.w3.org/2000/svg">
<path d="M11.3701 0.0938329C8.97736 -0.235312 6.54634 0.312385 4.52592 1.63579C2.5055 2.9592 1.03214 4.96893 0.377895 7.2939C-0.276351 9.61886 -0.067296 12.102 0.966459 14.2849C2.00021 16.4677 3.78885 18.2029 6.0021 19.1698C5.94224 18.4016 5.99718 17.6288 6.1651 16.8768C6.3501 16.0378 7.4611 11.4138 7.4611 11.4138C7.23986 10.9179 7.1293 10.3798 7.1371 9.83683C7.1371 8.35183 7.9941 7.24383 9.0601 7.24383C9.2516 7.24105 9.44146 7.27953 9.61677 7.35666C9.79208 7.4338 9.94872 7.54778 10.076 7.69086C10.2034 7.83393 10.2984 8.00275 10.3547 8.18582C10.4109 8.3689 10.4271 8.56194 10.4021 8.75183C10.4021 9.65183 9.8241 11.0138 9.5221 12.2918C9.46241 12.5262 9.45862 12.7713 9.51104 13.0075C9.56345 13.2436 9.6706 13.4641 9.82385 13.6512C9.97711 13.8383 10.1722 13.9868 10.3933 14.0847C10.6145 14.1826 10.8555 14.2272 11.0971 14.2148C12.9951 14.2148 14.2671 11.7838 14.2671 8.91383C14.2671 6.71383 12.8101 5.06583 10.1241 5.06583C9.48147 5.04086 8.84048 5.14676 8.24003 5.37709C7.63958 5.60742 7.09221 5.95738 6.63115 6.40572C6.17008 6.85406 5.80495 7.39144 5.55792 7.98521C5.31089 8.57898 5.18711 9.21676 5.1941 9.85983C5.16546 10.5732 5.3956 11.2728 5.8421 11.8298C5.92553 11.8921 5.98645 11.9798 6.01567 12.0798C6.04489 12.1797 6.04083 12.2864 6.0041 12.3838C5.9581 12.5678 5.8421 13.0068 5.7961 13.1678C5.78653 13.2224 5.76427 13.274 5.73112 13.3184C5.69797 13.3629 5.65484 13.3989 5.60523 13.4236C5.55561 13.4483 5.50088 13.461 5.44545 13.4607C5.39002 13.4604 5.33544 13.4471 5.2861 13.4218C3.9021 12.8678 3.2501 11.3448 3.2501 9.60583C3.2501 6.75883 5.6341 3.35083 10.4041 3.35083C14.2001 3.35083 16.7241 6.12783 16.7241 9.09783C16.7241 13.0068 14.5471 15.9458 11.3301 15.9458C10.8493 15.9612 10.3724 15.8551 9.94343 15.6373C9.51449 15.4195 9.1474 15.0971 8.8761 14.6998C8.8761 14.6998 8.2981 17.0158 8.1841 17.4538C7.95139 18.2105 7.608 18.9286 7.1651 19.5848C8.0881 19.8648 9.0471 20.0048 10.0111 20.0008C11.3247 20.0019 12.6256 19.7438 13.8393 19.2414C15.053 18.739 16.1556 18.0021 17.0842 17.0729C18.0127 16.1438 18.7488 15.0406 19.2504 13.8265C19.7519 12.6125 20.0091 11.3114 20.0071 9.99783C20.0059 7.58283 19.1309 5.24983 17.5437 3.42961C15.9566 1.6094 13.7644 0.424897 11.3721 0.0948328L11.3701 0.0938329Z" fill="white"/>
</svg>
